<?xml version="1.0" encoding="UTF-8"?>
<svg version="1.1" viewBox="0 0 24 24" xmlns="http://www.w3.org/2000/svg"><path d="m4.166 2.3203a0.60946 0.60946 0 0 0-0.56641 0.37109c-0.90951 2.142-1.0218 3.8341-0.88477 5.002 0.13706 1.1678 0.55664 1.8652 0.55664 1.8652a0.6094 0.6094 0 0 0 0.0058594 0.0058593c-0.39998 1.2122-0.49593 2.5136-0.24805 3.8066-0.86315 1.1819-1.1547 2.639-0.77539 3.8965 0.39143 1.2976 1.5945 2.3299 3.3457 2.3867a0.6094 0.6094 0 0 0 0.18945-0.023438c0.10356 0.31568 0.30255 0.59884 0.56641 0.83008h-4.1055v1.2188h19.5v-1.2188h-4.1035c0.26193-0.22924 0.46597-0.50739 0.57031-0.82031a0.6094 0.6094 0 0 0 0.18359 0.042969c1.7512-0.05685 2.9522-1.0891 3.3438-2.3867 0.37906-1.2566 0.090289-2.713-0.77148-3.8945 0.26586-1.3564 0.15991-2.7566-0.31641-4.0664 0.4956-0.70125 0.78906-1.5544 0.78906-2.4766 0-0.34726-0.04505-0.68416-0.12305-1.0078-0.041967-0.68687-0.25781-1.3535-0.25781-1.3535-0.14439-0.56029-0.34589-1.1632-0.61914-1.8066-0.096395-0.22682-0.31994-0.37328-0.56641-0.37109-0.63077 0.00559-1.1964 0.036548-1.7012 0.087891 0 0-0.65856 0.034672-0.95117 0.14844-0.028729-5.69e-4 -0.057056-0.0019531-0.085937-0.0019531-1.2101 0-2.3051 0.50211-3.0879 1.3086-1.2173-0.2555-2.4657-0.27988-3.6699-0.082031-0.16402 0.026948-0.32606 0.058648-0.48828 0.09375a0.6094 0.6094 0 0 0-0.0039062-0.0078125s-0.13351-0.16017-0.33594-0.3125-0.505-0.3375-0.93945-0.51758c-0.86891-0.36014-2.2606-0.69741-4.4492-0.7168zm12.975 0.84375c2.0446 0 3.6953 1.6508 3.6953 3.6953 0 2.0446-1.6508 3.6953-3.6953 3.6953-2.0446 0-3.6953-1.6508-3.6953-3.6953 0-2.0446 1.6508-3.6953 3.6953-3.6953zm-12.549 0.44336c1.6817 0.071404 2.9407 0.29937 3.5566 0.55469 0.11993 0.049704 0.21743 0.098305 0.30664 0.14453-0.53417 0.20556-1.0514 0.45601-1.541 0.75586-1.2415 0.76033-2.2306 1.773-2.918 2.9277-0.026091-0.13217-0.051085-0.27369-0.070313-0.4375-0.10299-0.87753 0.018451-2.2281 0.66602-3.9453zm7.2363 1.0449c0.5188-0.010115 1.0411 0.025017 1.5586 0.10547-0.34939 0.62194-0.55078 1.3388-0.55078 2.1016 0 2.3737 1.931 4.3047 4.3047 4.3047 1.0385 0 1.992-0.36981 2.7363-0.98437 0.27644 0.99609 0.31244 2.0329 0.11133 3.0449a0.6094 0.6094 0 0 0-0.064453 0.80664c0.70362 0.91013 0.91292 2.0567 0.6543 2.9141-0.21134 0.7006-0.66784 1.2433-1.5547 1.4414 0.29611-0.24289 0.48868-0.51224 0.60742-0.75977 0.2195-0.45754 0.19336-0.86328 0.19336-0.86328a0.30469 0.30469 0 0 0-0.32422-0.28125 0.30469 0.30469 0 0 0-0.2832 0.32617s0.020244 0.23158-0.13477 0.55469c-0.14152 0.29501-0.42464 0.64869-1.0605 0.90625-0.017596-0.026715-0.037598-0.052159-0.05664-0.078125 1.2687-0.85287 1.2891-2.5176 1.2891-2.5176a0.30469 0.30469 0 0 0-0.29883-0.30859 0.30469 0.30469 0 0 0-0.31055 0.29883s-0.041914 1.4456-1.1191 2.0859c-0.027094-0.020701-0.051972-0.042827-0.080079-0.0625-0.14754-0.10328-0.31091-0.19081-0.48437-0.26758 1.5602-1.4089 2.1231-3.3768 1.6094-5.877a0.30469 0.30469 0 0 0 0-0.001953 0.30469 0.30469 0 0 0 0-0.001954 0.30469 0.30469 0 0 0-0.001953-0.003906 0.30469 0.30469 0 0 0-0.12695-0.1875 0.30469 0.30469 0 0 0-0.001953-0.001953 0.30469 0.30469 0 0 0-0.001953 0 0.30469 0.30469 0 0 0-0.16602-0.048828c-1.8206-0.0083-3.1596-0.26147-4.1367-0.87109-0.97711-0.60961-1.6317-1.5823-2.0684-3.1582a0.30472 0.30472 0 0 0-0.3418-0.21875 0.30472 0.30472 0 0 0-0.25781 0.3125s-0.002036 1.456-1.3281 2.5527c0.09103-0.48677 0.25046-1.0141 0.10352-1.8262a0.30472 0.30472 0 0 0-0.58203-0.058594s-0.22023 0.54675-0.57812 1.1758c-0.18073 0.31763-0.44358 0.51936-0.67773 0.80859 0.077704-0.48701 0.15456-1.0327 0.064453-1.5059a0.30472 0.30472 0 0 0-0.57812-0.068359s-0.28286 0.62677-0.70898 1.3125c-0.22132 0.35615-0.4962 0.53499-0.76562 0.83203 0.0913-0.44794 0.19223-0.92661 0.11719-1.5527a0.30469 0.30469 0 0 0-0.33789-0.26562 0.30469 0.30469 0 0 0-0.26562 0.33789c0.1679 1.401-0.37305 2.3848-0.37305 2.3848a0.30472 0.30472 0 0 0-0.0019531 0.019531 0.30469 0.30469 0 0 0-0.027344 0.066407c-0.50867 2.4708 0.036048 4.4203 1.5527 5.8262-0.18756 0.080016-0.36172 0.17663-0.51953 0.28711-0.017318 0.012123-0.031907 0.026544-0.048828 0.039062-1.0844-0.63829-1.125-2.0918-1.125-2.0918a0.30469 0.30469 0 0 0-0.31055-0.29883 0.30469 0.30469 0 0 0-0.29883 0.31055s0.018599 1.6667 1.2871 2.5195c-0.021557 0.028588-0.040351 0.058545-0.060547 0.08789-0.65723-0.25822-0.94221-0.61836-1.0859-0.91797-0.15501-0.32312-0.13477-0.55664-0.13477-0.55664a0.30469 0.30469 0 0 0-0.28125-0.32617 0.30469 0.30469 0 0 0-0.32617 0.28125s-0.026136 0.40768 0.19336 0.86523c0.11875 0.24754 0.31268 0.51544 0.60938 0.75781-0.88806-0.19782-1.3452-0.74036-1.5566-1.4414-0.25862-0.85733-0.049342-2.0039 0.6543-2.9141a0.6094 0.6094 0 0 0-0.060547-0.8125c-0.54218-2.8025 0.76243-5.6459 3.4199-7.2734 1.307-0.80046 2.8362-1.2333 4.3926-1.2637zm0.056641 3.7148c0.46156 1.1218 1.0522 2.0299 1.9277 2.5762 1.0717 0.66862 2.4523 0.92683 4.2031 0.95703 0.43136 2.3796-0.15821 4.0471-1.7383 5.3008-0.23786-0.048216-0.48779-0.074219-0.74609-0.074219-0.68145 0-1.307 0.17843-1.7969 0.48438-1.5151 0.23068-1.9258 0.22509-3.4707-0.003906-0.48849-0.3031-1.1091-0.48047-1.7871-0.48047-0.24389 0-0.48085 0.023286-0.70703 0.066406-1.5835-1.2835-2.1498-2.9947-1.6543-5.4531 0.63431-0.36022 1.1775-1.0119 1.584-1.666 0.06556-0.1055 0.050751-0.10028 0.10938-0.20117-0.011942 0.082726 0.0021302 0.15601-0.011719 0.23438-0.087713 0.49625-0.19531 0.88086-0.19531 0.88086a0.30472 0.30472 0 0 0 0.44531 0.3457c0.64905-0.37828 1.1375-1.1135 1.5137-1.7656-0.049561 0.34272-0.058594 0.95508-0.058594 0.95508a0.30472 0.30472 0 0 0 0.44727 0.33398c1.3194-0.75179 1.7452-1.716 1.9355-2.4902zm-3.4082 9.3691c0.622 0 1.1787 0.17921 1.5645 0.44922 0.10295 0.072064 0.19268 0.14935 0.26953 0.23047 0.045073 0.065147 0.10897 0.15177 0.1875 0.25195 0.087909 0.15476 0.13477 0.31839 0.13476 0.48633 0 0.35812-0.20606 0.69874-0.5918 0.96875-0.20344 0.1424-0.45524 0.25897-0.73828 0.33789h-1.6523c-0.28373-0.078923-0.53672-0.19542-0.74023-0.33789-0.38574-0.27001-0.5918-0.61063-0.5918-0.96875s0.20606-0.69874 0.5918-0.96875c0.38574-0.27001 0.94441-0.44922 1.5664-0.44922zm7.0547 0c0.622 0 1.1787 0.17921 1.5645 0.44922 0.3858 0.27001 0.5918 0.61063 0.5918 0.96875s-0.20606 0.69874-0.5918 0.96875c-0.20454 0.14318-0.45906 0.25919-0.74414 0.33789h-1.6406c-0.2856-0.079182-0.54152-0.19467-0.74609-0.33789-0.38574-0.27001-0.58984-0.61063-0.58984-0.96875s0.2041-0.69874 0.58984-0.96875c0.38573-0.27001 0.94442-0.44922 1.5664-0.44922zm-4.5332 0.58203c0.74652 0.08565 1.272 0.088871 2.0078 0.00586-0.069489 0.11459-0.12349 0.23681-0.16406 0.36328-0.58752 0.066867-0.94621 0.078911-1.5234 0.013672-0.12252-0.13137-0.2237-0.2522-0.30664-0.35742-0.004888-0.008289-0.008627-0.017168-0.013672-0.025391zm1.7793 0.98828c0.02356 0.23317 0.10187 0.45302 0.21875 0.6543-0.36749-0.18394-0.68757-0.3938-0.96289-0.60742 0.23994-0.001779 0.47491-0.018734 0.74414-0.046875zm-1.5684 0.13086c0.37442 0.34718 0.86045 0.71456 1.4531 1.0234h-0.68555c-0.10946-0.067098-0.21455-0.13893-0.3125-0.21094-0.24505-0.18014-0.4419-0.35632-0.56055-0.46875 0.047929-0.1103 0.082968-0.22505 0.10547-0.34375zm-0.44726 0.85742c0.053168 0.048857 0.12085 0.10728 0.18945 0.16602h-0.35742c0.058685-0.052684 0.1155-0.10854 0.16797-0.16602z"/><path d="m9.8916 12.585a0.6094 0.6094 0 0 0-0.60938-0.60938 0.6094 0.6094 0 0 0-0.60938 0.60938v1.2129a0.6094 0.6094 0 0 0 0.60938 0.60938 0.6094 0.6094 0 0 0 0.60938-0.60938z"/><path d="m14.94 12.584a0.6094 0.6094 0 0 0-0.60938-0.60938 0.6094 0.6094 0 0 0-0.60938 0.60938v1.2148a0.6094 0.6094 0 0 0 0.60938 0.60938 0.6094 0.6094 0 0 0 0.60938-0.60938z"/><path d="m7.8359 14.477c-0.18287-0.0069-0.36845 0.0098-0.54688 0.08984a0.30469 0.30469 0 0 0-0.1543 0.40234 0.30469 0.30469 0 0 0 0.4043 0.1543c0.041708-0.01871 0.16223-0.04128 0.27344-0.03711 0.11121 0.0042 0.21979 0.04295 0.2168 0.04101a0.30469 0.30469 0 0 0 0.42188-0.08984 0.30469 0.30469 0 0 0-0.091797-0.42188c-0.16905-0.1091-0.34057-0.13181-0.52344-0.13867z"/><path d="m16.287 14.477c-0.18287 0.0069-0.35634 0.02957-0.52539 0.13867a0.30469 0.30469 0 0 0-0.08984 0.42188 0.30469 0.30469 0 0 0 0.42188 0.08984c-3e-3 0.0019 0.10363-0.03684 0.21484-0.04101 0.11121-0.0042 0.23368 0.0184 0.27539 0.03711a0.30469 0.30469 0 0 0 0.40234-0.1543 0.30469 0.30469 0 0 0-0.15234-0.40234c-0.17842-0.08003-0.364-0.0967-0.54688-0.08984z"/><path d="m12.879 15.625c-0.57414-0.27352-1.2256-0.28477-1.7715 0.0059a0.30469 0.30469 0 0 0-0.12695 0.41211 0.30469 0.30469 0 0 0 0.41211 0.125c0.36396-0.19379 0.80375-0.19269 1.2246 0.0078a0.30469 0.30469 0 0 0 0.40625-0.14456 0.30469 0.30469 0 0 0-0.14453-0.40625z"/><path d="m16.869 4.2617c-0.7433 0.13298-1.2832 0.79118-1.2832 1.5508a0.3045 0.3045 0 0 0 0.30273 0.30273 0.3045 0.3045 0 0 0 0.30469-0.30273c0-0.4723 0.33078-0.87023 0.7832-0.95117 0.45242-0.080939 0.89377 0.176 1.0527 0.61914 0.15896 0.44314-0.01889 0.93419-0.41797 1.168-0.48117 0.28186-0.77539 0.80114-0.77539 1.3613a0.3045 0.3045 0 0 0 0.30469 0.30469 0.3045 0.3045 0 0 0 0.30469-0.30469c0-0.34671 0.18168-0.66434 0.47461-0.83594 0.65242-0.38217 0.9399-1.184 0.68359-1.8984-0.2563-0.71447-0.99108-1.1466-1.7344-1.0137z"/><circle cx="17.14" cy="9.1097" r=".3047"/></svg>
